# xmcd CD database file
#
# Track frame offsets:
#	150
#	16812
#	32592
#	47712
#	63438
#	77699
#	95973
#	113816
#	130458
#	151102
#	166444
#	181525
#	204147
#
# Disc length: 2993 seconds
#
# Revision: 2
# Processed by: cddbd v1.5.2PL0 Copyright (c) Steve Scherf et al.
# Submitted via: CDex 1.70beta2
#
DISCID=9c0baf0d
DTITLE=Lee Brice - Hard 2 Love
DYEAR=2012
DGENRE=Country
TTITLE0=Hard To Love
TTITLE1=A Woman Like You
TTITLE2=That's When You Know It's Over
TTITLE3=Parkin Lot Party
TTITLE4=Don't Believe Everyting You Think
TTITLE5=I Drive Your Truck
TTITLE6=See About A Girl
TTITLE7=Friends We Won't Forget
TTITLE8=Life Off My Years 
TTITLE9=Seven Days A Thousand Times
TTITLE10=Beer
TTITLE11=That Way Again
TTITLE12=One More Day
EXTD=YEAR: 2012
EXTT0=
EXTT1=
EXTT2=
EXTT3=
EXTT4=
EXTT5=
EXTT6=
EXTT7=
EXTT8=
EXTT9=
EXTT10=
EXTT11=
EXTT12=
PLAYORDER=
